<?xml version="1.0" encoding="UTF-8"?>
<svg width="737px" height="250px" viewBox="0 0 737 250" version="1.1" xmlns="http://www.w3.org/2000/svg" xmlns:xlink="http://www.w3.org/1999/xlink">
    <title>export</title>
    <g id="export" stroke="none" stroke-width="1" fill="none" fill-rule="evenodd">
        <path d="M46.8,195.6 C53.6,195.6 59.7,194.366667 65.1,191.9 C70.5,189.433333 74.8666667,185.4 78.2,179.8 L78.6,179.8 L78.6,193 L105.6,193 L105.6,50.2 L77.2,50.2 L77.2,102.2 L76.8,102.2 C73.6,97.1333333 69.2333333,93.3 63.7,90.7 C58.1666667,88.1 52.3333333,86.8 46.2,86.8 C38.6,86.8 31.9333333,88.3 26.2,91.3 C20.4666667,94.3 15.7,98.2666667 11.9,103.2 C8.1,108.133333 5.23333333,113.833333 3.3,120.3 C1.36666667,126.766667 0.4,133.466667 0.4,140.4 C0.4,147.6 1.36666667,154.533333 3.3,161.2 C5.23333333,167.866667 8.1,173.766667 11.9,178.9 C15.7,184.033333 20.5333333,188.1 26.4,191.1 C32.2666667,194.1 39.0666667,195.6 46.8,195.6 Z M53.8,174.4 C49.4,174.4 45.6333333,173.433333 42.5,171.5 C39.3666667,169.566667 36.7666667,167.033333 34.7,163.9 C32.6333333,160.766667 31.1333333,157.2 30.2,153.2 C29.2666667,149.2 28.8,145.2 28.8,141.2 C28.8,136.933333 29.2333333,132.833333 30.1,128.9 C30.9666667,124.966667 32.3666667,121.466667 34.3,118.4 C36.2333333,115.333333 38.8,112.866667 42,111 C45.2,109.133333 49.1333333,108.2 53.8,108.2 C58.4666667,108.2 62.3333333,109.133333 65.4,111 C68.4666667,112.866667 70.9666667,115.3 72.9,118.3 C74.8333333,121.3 76.2,124.766667 77,128.7 C77.8,132.633333 78.2,136.733333 78.2,141 C78.2,145.266667 77.8,149.4 77,153.4 C76.2,157.4 74.8666667,160.966667 73,164.1 C71.1333333,167.233333 68.6333333,169.733333 65.5,171.6 C62.3666667,173.466667 58.4666667,174.4 53.8,174.4 Z M146.2,73.6 L146.2,50.2 L117.8,50.2 L117.8,73.6 L146.2,73.6 Z M146.2,193 L146.2,89.6 L117.8,89.6 L117.8,193 L146.2,193 Z M206.4,195.6 C218.133333,195.6 228.133333,192.933333 236.4,187.6 C244.666667,182.266667 250.8,173.4 254.8,161 L229.8,161 C228.866667,164.2 226.333333,167.233333 222.2,170.1 C218.066667,172.966667 213.133333,174.4 207.4,174.4 C199.4,174.4 193.266667,172.333333 189,168.2 C184.733333,164.066667 182.4,157.4 182,148.2 L256.6,148.2 C257.133333,140.2 256.466667,132.533333 254.6,125.2 C252.733333,117.866667 249.7,111.333333 245.5,105.6 C241.3,99.8666667 235.933333,95.3 229.4,91.9 C222.866667,88.5 215.2,86.8 206.4,86.8 C198.533333,86.8 191.366667,88.2 184.9,91 C178.433333,93.8 172.866667,97.6333333 168.2,102.5 C163.533333,107.366667 159.933333,113.133333 157.4,119.8 C154.866667,126.466667 153.6,133.666667 153.6,141.4 C153.6,149.4 154.833333,156.733333 157.3,163.4 C159.766667,170.066667 163.266667,175.8 167.8,180.6 C172.333333,185.4 177.866667,189.1 184.4,191.7 C190.933333,194.3 198.266667,195.6 206.4,195.6 Z M228.2,130.2 L182,130.2 C182.133333,128.2 182.566667,125.933333 183.3,123.4 C184.033333,120.866667 185.3,118.466667 187.1,116.2 C188.9,113.933333 191.3,112.033333 194.3,110.5 C197.3,108.966667 201.066667,108.2 205.6,108.2 C212.533333,108.2 217.7,110.066667 221.1,113.8 C224.5,117.533333 226.866667,123 228.2,130.2 Z M291.8,193 L291.8,138.8 C291.8,128.266667 293.533333,120.7 297,116.1 C300.466667,111.5 306.066667,109.2 313.8,109.2 C320.6,109.2 325.333333,111.3 328,115.5 C330.666667,119.7 332,126.066667 332,134.6 L332,193 L360.4,193 L360.4,129.4 C360.4,123 359.833333,117.166667 358.7,111.9 C357.566667,106.633333 355.6,102.166667 352.8,98.5 C350,94.8333333 346.166667,91.9666667 341.3,89.9 C336.433333,87.8333333 330.2,86.8 322.6,86.8 C316.6,86.8 310.733333,88.1666667 305,90.9 C299.266667,93.6333333 294.6,98 291,104 L290.4,104 L290.4,89.6 L263.4,89.6 L263.4,193 L291.8,193 Z M402.8,195.6 C409.2,195.6 415.466667,194.666667 421.6,192.8 C427.733333,190.933333 433.066667,187.666667 437.6,183 C437.733333,184.733333 437.966667,186.433333 438.3,188.1 C438.633333,189.766667 439.066667,191.4 439.6,193 L439.6,193 L468.4,193 C467.066667,190.866667 466.133333,187.666667 465.6,183.4 C465.066667,179.133333 464.8,174.666667 464.8,170 L464.8,170 L464.8,116.2 C464.8,109.933333 463.4,104.9 460.6,101.1 C457.8,97.3 454.2,94.3333333 449.8,92.2 C445.4,90.0666667 440.533333,88.6333333 435.2,87.9 C429.866667,87.1666667 424.6,86.8 419.4,86.8 C413.666667,86.8 407.966667,87.3666667 402.3,88.5 C396.633333,89.6333333 391.533333,91.5333333 387,94.2 C382.466667,96.8666667 378.733333,100.4 375.8,104.8 C372.866667,109.2 371.2,114.733333 370.8,121.4 L370.8,121.4 L399.2,121.4 C399.733333,115.8 401.6,111.8 404.8,109.4 C408,107 412.4,105.8 418,105.8 C420.533333,105.8 422.9,105.966667 425.1,106.3 C427.3,106.633333 429.233333,107.3 430.9,108.3 C432.566667,109.3 433.9,110.7 434.9,112.5 C435.9,114.3 436.4,116.733333 436.4,119.8 C436.533333,122.733333 435.666667,124.966667 433.8,126.5 C431.933333,128.033333 429.4,129.2 426.2,130 C423,130.8 419.333333,131.4 415.2,131.8 C411.066667,132.2 406.866667,132.733333 402.6,133.4 C398.333333,134.066667 394.1,134.966667 389.9,136.1 C385.7,137.233333 381.966667,138.933333 378.7,141.2 C375.433333,143.466667 372.766667,146.5 370.7,150.3 C368.633333,154.1 367.6,158.933333 367.6,164.8 C367.6,170.133333 368.5,174.733333 370.3,178.6 C372.1,182.466667 374.6,185.666667 377.8,188.2 C381,190.733333 384.733333,192.6 389,193.8 C393.266667,195 397.866667,195.6 402.8,195.6 Z M413.4,176.8 C411.133333,176.8 408.933333,176.6 406.8,176.2 C404.666667,175.8 402.8,175.1 401.2,174.1 C399.6,173.1 398.333333,171.733333 397.4,170 C396.466667,168.266667 396,166.133333 396,163.6 C396,160.933333 396.466667,158.733333 397.4,157 C398.333333,155.266667 399.566667,153.833333 401.1,152.7 C402.633333,151.566667 404.433333,150.666667 406.5,150 C408.566667,149.333333 410.666667,148.8 412.8,148.4 C415.066667,148 417.333333,147.666667 419.6,147.4 C421.866667,147.133333 424.033333,146.8 426.1,146.4 C428.166667,146 430.1,145.5 431.9,144.9 C433.7,144.3 435.2,143.466667 436.4,142.4 L436.4,142.4 L436.4,153 C436.4,154.6 436.233333,156.733333 435.9,159.4 C435.566667,162.066667 434.666667,164.7 433.2,167.3 C431.733333,169.9 429.466667,172.133333 426.4,174 C423.333333,175.866667 419,176.8 413.4,176.8 Z" id="diena" fill="#022448" fill-rule="nonzero"></path>
        <rect id="Rectangle" fill="#044992" x="487" y="0" width="250" height="250" rx="8"></rect>
        <path d="M611.941406,193 L611.941406,167.511719 L557.449219,167.511719 C558.88151,165.03776 560.753255,162.498698 563.064453,159.894531 C565.375651,157.290365 570.860677,152.016927 579.519531,144.074219 C588.178385,136.13151 594.167969,130.044271 597.488281,125.8125 C602.501302,119.432292 606.163411,113.328776 608.474609,107.501953 C610.785807,101.67513 611.941406,95.5390625 611.941406,89.09375 C611.941406,77.765625 607.904948,68.2929688 599.832031,60.6757812 C591.759115,53.0585938 580.658854,49.25 566.53125,49.25 C553.640625,49.25 542.898438,52.5377604 534.304688,59.1132812 C525.710938,65.6888021 520.60026,76.5286458 518.972656,91.6328125 L518.972656,91.6328125 L546.316406,94.3671875 C546.83724,86.359375 548.790365,80.6302083 552.175781,77.1796875 C555.561198,73.7291667 560.11849,72.0039062 565.847656,72.0039062 C571.641927,72.0039062 576.182943,73.6477865 579.470703,76.9355469 C582.758464,80.2233073 584.402344,84.9270833 584.402344,91.046875 C584.402344,96.5807292 582.514323,102.179688 578.738281,107.84375 C575.938802,111.945312 568.354167,119.757812 555.984375,131.28125 C540.619792,145.539062 530.333333,156.98112 525.125,165.607422 C519.916667,174.233724 516.791667,183.364583 515.75,193 L515.75,193 L611.941406,193 Z M700.867188,193 L700.867188,164.191406 L718.640625,164.191406 L718.640625,140.070312 L700.867188,140.070312 L700.867188,49.25 L677.820312,49.25 L615.710938,140.167969 L615.710938,164.191406 L674.304688,164.191406 L674.304688,193 L700.867188,193 Z M674.304688,140.070312 L641.394531,140.070312 L674.304688,91.1445312 L674.304688,140.070312 Z" id="24" fill="#FAC711" fill-rule="nonzero"></path>
    </g>
</svg>